<?xml version="1.0" standalone="no"?>
<!DOCTYPE svg PUBLIC "-//W3C//DTD SVG 20010904//EN"
 "http://www.w3.org/TR/2001/REC-SVG-20010904/DTD/svg10.dtd">
<svg version="1.0" xmlns="http://www.w3.org/2000/svg"
 width="770.000000pt" height="770.000000pt" viewBox="0 0 770.000000 770.000000"
 preserveAspectRatio="xMidYMid meet">
<metadata>
Created by potrace 1.14, written by Peter Selinger 2001-2017
</metadata>
<g transform="translate(0.000000,770.000000) scale(0.100000,-0.100000)"
fill="#000000" stroke="none">
<path d="M653 5913 c3 -1989 -1 -1861 72 -2228 214 -1068 919 -2134 1930
-2920 329 -256 710 -484 1054 -631 132 -56 136 -57 180 -45 144 38 542 223
755 350 381 229 681 464 1017 800 823 825 1303 1807 1388 2844 7 83 11 737 11
1873 l0 1744 -3205 0 -3206 0 4 -1787z m1966 1291 c17 -21 21 -41 21 -96 l0
-70 28 7 c66 18 108 23 124 14 16 -9 17 -13 4 -37 -8 -15 -33 -49 -56 -75 -51
-58 -44 -72 24 -52 27 8 62 15 78 15 61 0 40 -62 -31 -95 -55 -24 -54 -47 2
-69 124 -47 105 -137 -22 -109 -26 5 -54 14 -65 18 -17 7 -17 5 -10 -26 5 -19
9 -56 9 -84 0 -48 -1 -50 -30 -53 -19 -2 -43 6 -65 20 -33 23 -35 27 -38 91
-2 51 -6 67 -17 67 -12 0 -15 -15 -15 -64 0 -61 -2 -66 -30 -86 -17 -12 -48
-24 -69 -27 -33 -5 -39 -2 -44 17 -6 22 5 97 18 133 9 21 8 21 -45 2 -59 -21
-106 -19 -130 5 -17 17 -18 24 -9 41 10 20 120 79 147 79 26 0 10 17 -28 29
-53 16 -102 58 -98 85 4 28 43 32 110 12 71 -20 80 -4 29 49 -101 106 -94 138
25 110 36 -8 67 -15 70 -15 3 0 2 19 -1 43 -17 113 58 192 114 121z m2667 5
c15 -17 19 -36 19 -95 0 -41 0 -74 0 -74 0 0 31 6 68 14 38 8 75 12 83 9 27
-10 14 -44 -36 -97 -71 -75 -67 -95 15 -71 138 42 158 -24 26 -87 l-65 -31 63
-22 c61 -22 111 -58 111 -78 0 -6 -7 -19 -17 -29 -19 -22 -71 -23 -128 -3 -21
8 -41 12 -43 10 -2 -2 2 -27 8 -57 17 -76 11 -102 -22 -106 -16 -2 -46 7 -68
19 l-40 23 0 69 c0 60 -2 68 -17 65 -15 -3 -19 -16 -21 -69 -3 -65 -3 -66 -41
-87 -84 -47 -113 -21 -91 83 6 31 10 59 7 61 -2 2 -20 -3 -40 -11 -51 -21
-110 -19 -131 4 -32 35 9 77 108 111 l51 17 -56 25 c-55 25 -103 71 -96 92 6
18 54 18 114 1 81 -24 86 -6 17 68 -84 90 -71 118 42 92 36 -8 66 -15 67 -15
1 0 2 31 2 68 0 83 20 122 64 122 16 0 36 -9 47 -21z m-3757 -175 c17 -14 38
-47 48 -75 10 -27 22 -49 27 -49 5 0 28 18 52 40 48 44 68 49 96 23 33 -30 18
-86 -43 -164 -27 -34 -37 -59 -24 -59 3 0 29 16 59 35 29 20 69 38 88 42 31 4
38 2 53 -21 16 -24 16 -28 1 -51 -10 -14 -28 -31 -42 -37 -40 -18 -26 -42 28
-48 63 -8 98 -40 98 -91 0 -70 -47 -84 -128 -38 -18 10 -35 19 -37 19 -2 0 3
-21 12 -46 26 -76 -13 -120 -89 -98 -24 7 -34 19 -49 59 -17 42 -18 56 -8 87
21 66 -14 155 -72 180 -24 10 -40 33 -79 114 -27 55 -64 121 -83 146 -20 26
-33 49 -30 52 4 3 25 6 49 6 31 0 51 -7 73 -26z m2194 20 c3 -4 -7 -23 -23
-43 -16 -20 -54 -87 -85 -148 -31 -62 -62 -113 -69 -113 -24 0 -85 -77 -92
-115 -4 -21 -1 -52 6 -73 10 -32 9 -44 -8 -87 -17 -43 -24 -51 -56 -58 -70
-17 -107 36 -74 108 16 35 8 38 -39 14 -58 -28 -104 -23 -116 14 -20 61 34
117 112 117 47 0 48 19 2 57 -44 37 -51 62 -24 88 22 23 65 13 130 -30 29 -19
57 -35 63 -35 16 0 12 26 -7 41 -31 26 -73 103 -73 134 0 68 59 76 114 15 46
-51 62 -51 70 2 10 60 70 118 123 118 22 0 42 -3 46 -6z m481 -28 c18 -18 38
-52 44 -75 14 -44 35 -53 52 -22 15 29 76 63 100 56 54 -17 48 -78 -15 -165
-25 -32 -40 -62 -35 -65 5 -3 32 10 60 29 85 58 150 58 150 0 0 -24 -23 -53
-55 -72 -31 -17 -10 -39 41 -45 36 -4 54 -12 71 -32 40 -46 24 -125 -26 -125
-10 0 -40 11 -66 25 -54 27 -62 26 -46 -3 6 -12 11 -39 11 -62 0 -51 -29 -69
-87 -54 -33 8 -40 15 -56 59 -16 43 -17 55 -6 87 10 30 10 47 0 78 -13 44 -65
110 -87 110 -8 0 -40 53 -73 118 -33 65 -71 132 -85 149 -14 17 -23 33 -19 37
3 3 26 6 51 6 38 0 50 -5 76 -34z m2186 27 c0 -5 -18 -34 -39 -66 -22 -33 -56
-97 -78 -143 -29 -64 -45 -86 -66 -95 -59 -25 -106 -140 -78 -192 9 -18 8 -33
-7 -76 -15 -45 -24 -56 -48 -63 -74 -20 -108 17 -86 96 6 23 9 42 7 44 -1 2
-21 -7 -43 -18 -55 -29 -103 -24 -116 11 -21 60 17 106 96 116 24 3 46 11 50
17 4 5 -11 25 -33 44 -47 40 -52 76 -14 94 28 13 67 -1 138 -49 29 -20 41 -23
49 -15 9 9 6 19 -14 39 -82 89 -96 183 -27 183 24 0 42 -11 77 -45 24 -25 46
-45 48 -45 2 0 4 8 4 18 0 33 51 122 78 137 28 15 102 20 102 8z m-4265 -238
c39 -38 28 -93 -22 -114 -75 -31 -137 57 -81 116 29 31 72 30 103 -2z m993 8
c12 -10 24 -30 28 -45 5 -22 0 -34 -25 -59 -26 -25 -37 -30 -59 -24 -41 10
-62 34 -62 72 0 63 70 96 118 56z m1670 0 c12 -10 24 -30 28 -45 5 -22 0 -33
-24 -58 -36 -35 -60 -38 -96 -9 -52 41 -23 129 43 129 16 0 38 -8 49 -17z
m1002 -3 c30 -30 27 -83 -6 -109 -15 -12 -34 -21 -44 -21 -10 0 -29 9 -44 21
-52 41 -23 129 44 129 17 0 39 -9 50 -20z m-4177 -130 c41 -49 48 -130 11
-130 -42 0 -98 100 -80 145 9 24 42 17 69 -15z m1979 13 c11 -49 -41 -143 -79
-143 -40 0 -32 92 12 136 28 28 62 31 67 7z m681 -1 c26 -28 49 -93 43 -118
-16 -63 -106 17 -106 94 0 16 3 32 7 35 12 13 40 7 56 -11z m1985 -11 c5 -35
-5 -66 -34 -100 -31 -38 -61 -40 -70 -7 -8 32 2 63 33 104 30 39 66 41 71 3z
m-4084 -147 c37 -46 80 -64 156 -64 39 0 70 -6 85 -16 30 -19 70 -12 119 21
l34 23 57 -29 c65 -33 83 -35 111 -14 12 9 43 14 82 15 105 0 168 47 197 143
17 59 31 43 27 -33 -4 -81 15 -114 85 -152 45 -25 188 -58 249 -58 19 0 24 -5
24 -25 0 -14 -1 -25 -3 -25 -2 0 -46 14 -98 30 -52 17 -122 35 -155 39 -68 10
-118 32 -127 56 -5 13 -12 12 -44 -8 -37 -21 -47 -22 -373 -25 -342 -3 -406 2
-442 35 -16 15 -19 14 -38 -10 -21 -27 -58 -40 -141 -52 -26 -3 -86 -19 -134
-35 -47 -17 -88 -30 -91 -30 -2 0 -4 11 -4 25 0 14 3 25 8 25 45 0 185 25 227
41 58 22 110 72 121 116 4 15 3 48 -3 75 -13 63 6 71 27 11 8 -24 28 -59 44
-79z m2672 -6 c39 -41 82 -58 147 -58 30 0 68 -7 85 -16 37 -18 93 -7 135 26
l26 21 38 -25 c53 -34 98 -42 128 -22 15 10 46 16 82 16 107 1 179 58 199 158
6 31 18 41 28 24 3 -4 1 -26 -4 -48 -14 -59 -2 -102 39 -143 44 -44 112 -68
234 -83 82 -11 87 -13 81 -32 -4 -12 -7 -22 -8 -23 -1 -1 -41 11 -90 28 -48
16 -120 34 -159 39 -71 11 -89 18 -118 53 -16 19 -17 19 -48 -4 l-33 -24 -368
0 -368 0 -32 23 -32 24 -14 -21 c-22 -30 -44 -40 -121 -51 -57 -8 -166 -38
-235 -65 -14 -6 -18 -2 -18 18 0 24 4 26 58 32 223 24 320 96 294 220 -14 70
6 80 28 14 10 -28 30 -64 46 -81z m-2761 -179 c-106 -16 -207 -40 -270 -64
-17 -6 -16 -5 3 10 55 41 198 72 337 73 34 0 11 -6 -70 -19z m1113 -5 c55 -12
142 -48 142 -58 0 -2 -33 7 -74 20 -40 12 -129 32 -197 43 l-124 20 95 -5 c52
-3 123 -12 158 -20z m1562 6 c-130 -20 -186 -32 -247 -54 -60 -21 -53 -10 10
19 75 33 177 50 302 52 33 1 10 -5 -65 -17z m1108 -6 c56 -12 142 -48 142 -59
0 -2 -24 4 -52 14 -48 17 -143 37 -288 61 -46 8 -39 8 40 4 52 -3 123 -12 158
-20z m-3310 -14 c-2 -15 -28 -32 -95 -63 -56 -25 -92 -48 -93 -57 0 -9 35 -31
92 -57 51 -23 94 -47 96 -52 2 -7 -18 -11 -55 -11 -218 0 -498 -46 -620 -101
-35 -15 -64 -25 -67 -21 -2 4 -7 22 -11 40 l-7 32 64 1 63 1 64 69 c34 37 60
72 57 77 -3 5 -44 12 -92 16 l-87 7 -43 -42 c-24 -24 -46 -41 -48 -38 -3 3 -8
23 -11 45 -7 38 -5 40 32 61 103 58 399 106 686 112 74 1 78 0 75 -19z m432
-6 c138 -16 220 -33 306 -63 74 -26 95 -46 88 -80 -12 -56 -13 -56 -58 -12
l-43 42 -87 -7 c-48 -4 -89 -11 -92 -16 -3 -4 23 -40 58 -78 l63 -69 64 -1
c54 0 62 -2 57 -16 -3 -9 -9 -27 -12 -40 -4 -14 -9 -23 -13 -21 -125 68 -320
108 -598 123 -102 5 -133 10 -133 20 0 8 38 32 85 53 47 22 85 45 85 51 0 6
-38 29 -85 51 -75 34 -85 42 -85 65 l0 27 138 -7 c75 -4 193 -14 262 -22z
m2230 5 c0 -16 -20 -30 -95 -65 -52 -24 -95 -49 -95 -54 0 -5 43 -30 95 -54
52 -25 95 -48 95 -53 0 -5 -78 -14 -172 -21 -254 -17 -409 -48 -511 -99 -27
-13 -50 -23 -52 -21 -2 2 -6 20 -10 41 l-7 37 59 0 60 0 67 70 c37 38 65 74
62 78 -3 5 -47 12 -98 16 l-93 7 -37 -43 c-20 -24 -39 -40 -43 -36 -4 3 -9 24
-12 46 -5 38 -3 41 27 57 119 61 401 108 688 114 67 1 72 -1 72 -20z m435 -4
c190 -24 336 -63 385 -103 18 -15 19 -21 9 -56 l-11 -39 -42 42 -43 42 -91 -7
c-51 -4 -92 -11 -92 -16 0 -5 28 -41 61 -79 l62 -69 60 0 60 0 -6 -36 c-3 -20
-8 -38 -10 -41 -2 -2 -27 8 -55 22 -101 51 -300 87 -554 101 -157 9 -163 19
-43 74 47 21 85 44 85 50 0 6 -38 29 -85 50 -76 35 -85 42 -85 66 l0 27 143
-8 c78 -3 192 -13 252 -20z m-3020 -82 c30 -15 55 -30 55 -33 0 -8 -107 -60
-123 -60 -18 0 -137 52 -137 60 0 9 110 58 132 59 10 1 42 -11 73 -26z m2666
1 c33 -15 59 -30 59 -33 0 -10 -107 -61 -126 -61 -22 0 -134 51 -134 60 0 9
108 58 129 59 7 1 40 -11 72 -25z m-3351 -124 l-42 -50 -64 0 -65 0 43 50 43
50 63 0 64 0 -42 -50z m1368 9 c20 -23 39 -45 40 -50 2 -5 -23 -9 -55 -9 -54
0 -62 3 -89 33 -63 68 -64 67 5 67 59 0 62 -1 99 -41z m1300 -9 c-43 -49 -43
-49 -107 -50 -71 0 -71 -1 -7 68 28 30 35 32 94 32 l64 0 -44 -50z m1370 7
c23 -23 42 -46 42 -50 0 -4 -26 -7 -57 -7 -54 0 -60 3 -100 42 -24 23 -43 46
-43 50 0 4 26 8 58 8 55 0 60 -2 100 -43z m-3083 -102 c205 -24 364 -71 404
-119 49 -59 -105 -126 -370 -160 -423 -54 -973 -3 -1091 103 -27 24 -29 30
-18 50 25 48 190 100 402 125 157 19 512 20 673 1z m2665 0 c203 -24 343 -63
397 -109 38 -33 25 -60 -50 -95 -250 -118 -949 -132 -1289 -25 -77 25 -138 64
-138 89 0 35 106 84 239 112 206 42 612 56 841 28z m-3218 -494 c232 -48 400
-50 668 -10 262 40 456 30 783 -43 l97 -21 0 -1049 c0 -576 -2 -1048 -4 -1048
-2 0 -55 20 -118 44 -62 24 -151 54 -198 67 -99 27 -117 28 -725 15 -220 -5
-448 -6 -507 -1 l-108 7 0 1029 c0 594 4 1029 9 1029 5 0 51 -9 103 -19z
m2453 -11 c273 -39 448 -37 670 11 49 10 93 19 97 19 4 0 8 -463 8 -1029 l0
-1029 -107 -8 c-60 -4 -288 -3 -508 2 -594 13 -633 12 -740 -20 -49 -15 -135
-45 -189 -66 -55 -22 -103 -37 -108 -34 -4 3 -8 473 -8 1045 l0 1039 24 10
c35 13 273 59 391 75 124 17 284 12 470 -15z m-2553 -2065 c23 -4 324 -6 668
-4 l625 4 105 -37 c58 -20 123 -45 145 -54 l40 -17 -38 -10 c-31 -7 -47 -5
-87 12 -27 12 -86 30 -132 41 -173 40 -230 43 -638 30 -231 -8 -464 -10 -582
-5 l-198 7 0 1044 0 1043 23 16 22 15 3 -1039 2 -1039 42 -7z m3416 1012 l2
-1045 -197 -7 c-119 -5 -355 -3 -588 4 -350 11 -401 11 -498 -4 -104 -15 -260
-55 -298 -75 -21 -12 -105 -2 -92 11 4 4 71 29 148 56 l140 48 615 -4 c338 -2
639 0 668 4 l52 7 0 1040 0 1040 23 -14 22 -15 3 -1046z m102 -68 l0 -1047
-232 -7 c-128 -3 -393 -2 -589 4 -243 8 -388 8 -454 1 -102 -11 -276 -43 -320
-60 -20 -8 -32 -6 -47 4 l-20 14 20 11 c36 19 223 60 322 70 61 6 165 7 290 1
226 -11 846 -13 914 -4 l46 7 0 1048 0 1049 35 -22 35 -23 0 -1046z m-3650 37
l0 -1044 78 -8 c42 -4 289 -3 547 1 552 10 628 9 735 -9 89 -16 230 -56 230
-65 0 -18 -41 -30 -67 -20 -15 6 -68 19 -118 29 -177 37 -265 41 -652 29 -203
-6 -468 -8 -590 -4 l-223 7 0 1048 0 1048 23 15 c12 9 25 16 30 16 4 1 7 -469
7 -1043z m-42 -1122 c31 -4 323 -4 649 0 613 7 646 5 830 -35 71 -16 91 -24
86 -35 -6 -17 -5 -16 -63 -3 -139 32 -270 39 -700 39 -239 0 -542 0 -672 0
l-238 0 0 1054 0 1055 23 16 22 15 3 -1049 2 -1050 58 -7z m3757 2090 l25 -16
0 -1054 0 -1054 -237 0 c-845 1 -1208 -6 -1303 -24 -118 -23 -132 -24 -137 -9
-5 13 127 46 252 63 54 7 268 8 675 4 327 -4 616 -4 643 0 l47 7 0 1050 c0
577 2 1049 5 1049 3 0 17 -7 30 -16z m-4434 -17 c48 -32 68 -91 48 -143 -28
-75 -111 -104 -177 -64 -82 50 -75 178 11 215 46 20 79 18 118 -8z m199 -38
c97 -45 100 -49 100 -141 0 -43 -3 -78 -6 -78 -3 0 -26 12 -50 26 -25 15 -71
34 -102 44 l-57 18 3 51 c3 32 -2 62 -12 82 -9 18 -16 34 -16 37 0 11 80 -12
140 -39z m4370 -1085 l0 -1054 -247 0 c-814 1 -1289 -7 -1393 -24 -58 -9 -112
-19 -122 -22 -12 -4 -15 0 -11 15 4 16 21 22 91 35 191 34 278 37 867 30 319
-4 615 -4 658 0 l77 8 0 1059 0 1059 40 -26 40 -27 0 -1053z m-4030 42 l0
-1054 78 -8 c42 -4 338 -4 657 0 590 7 676 4 868 -30 69 -13 87 -20 87 -33 0
-16 -6 -16 -72 -5 -159 27 -338 35 -768 34 -245 0 -554 0 -687 0 l-243 0 0
1055 0 1055 33 20 c17 11 35 20 40 20 4 0 7 -474 7 -1054z m-533 735 c31 -16
56 -77 49 -120 -8 -55 -63 -101 -120 -101 -110 0 -163 133 -82 209 42 39 95
44 153 12z m158 -42 c22 -6 61 -20 88 -31 l47 -20 0 -79 c0 -44 -1 -79 -2 -79
-2 0 -41 14 -88 30 -47 16 -98 30 -114 30 -23 0 -27 3 -20 18 5 9 9 45 9 80 0
70 3 72 80 51z m-143 -318 c57 -64 41 -158 -35 -195 -101 -49 -207 53 -163
158 33 80 142 100 198 37z m268 -16 c6 -3 10 -40 10 -81 l0 -76 -27 6 c-16 3
-65 8 -109 11 l-81 7 5 43 c2 24 -1 58 -7 76 l-11 32 105 -6 c58 -3 110 -9
115 -12z m-284 -312 c25 -16 54 -71 54 -103 0 -61 -61 -120 -125 -120 -108 0
-161 132 -84 210 42 42 104 47 155 13z m234 -52 l55 -6 3 -49 c2 -27 0 -52 -5
-57 -4 -4 -56 -11 -115 -15 l-108 -7 11 32 c6 18 9 52 7 76 l-5 44 51 -6 c28
-3 76 -8 106 -12z m-232 -296 c61 -51 66 -132 13 -186 -77 -77 -203 -23 -205
87 -2 101 117 163 192 99z m292 -99 l0 -73 -46 -7 c-26 -3 -78 -6 -116 -6 -63
0 -69 2 -62 18 5 9 9 43 9 74 l0 57 55 4 c30 2 79 4 108 5 l52 2 0 -74z m-4
-351 c-5 -15 -125 -60 -184 -70 l-42 -7 10 27 c13 34 13 91 0 115 -9 17 -6 20
17 25 16 3 66 18 113 33 l85 27 3 -69 c2 -38 1 -75 -2 -81z m-289 110 c33 -22
56 -80 48 -122 -3 -19 -19 -48 -35 -66 -25 -29 -34 -32 -83 -32 -62 0 -91 18
-114 74 -47 110 82 212 184 146z m277 -466 c-24 -26 -131 -78 -177 -86 l-37
-6 11 32 c11 31 9 92 -5 122 -5 12 4 18 42 27 26 7 77 28 113 46 l64 33 3 -75
c2 -59 -1 -78 -14 -93z m-277 96 c14 -9 31 -33 40 -52 32 -77 -17 -161 -97
-170 -107 -10 -173 102 -113 195 31 50 114 63 170 27z m2041 -139 c74 -8 136
-17 139 -20 3 -3 -10 -14 -28 -25 -32 -19 -50 -21 -249 -21 l-215 0 0 40 0 40
110 0 c61 0 170 -7 243 -14z m1297 -26 l0 -40 -225 0 c-214 0 -227 1 -260 22
l-35 22 37 8 c65 14 218 25 353 27 l130 1 0 -40z m-782 -399 c31 -12 49 -63
47 -128 -1 -27 -1 -51 -1 -55 1 -3 22 0 48 8 60 18 102 18 109 -1 7 -18 -24
-70 -65 -109 -40 -38 -41 -61 -3 -52 51 13 139 18 145 9 11 -18 -19 -58 -61
-81 -23 -13 -42 -30 -42 -38 0 -7 21 -25 48 -38 64 -33 87 -58 73 -84 -15 -29
-57 -35 -121 -18 -30 8 -57 13 -59 11 -2 -3 2 -24 8 -49 24 -96 7 -127 -57
-108 -64 19 -82 44 -82 112 0 46 -3 60 -15 60 -11 0 -15 -16 -17 -66 -3 -59
-6 -69 -30 -87 -14 -11 -43 -20 -65 -21 -38 -1 -38 -1 -41 41 -2 23 2 59 7 80
6 20 9 38 8 40 -2 1 -25 -4 -52 -12 -64 -20 -88 -19 -116 4 -20 16 -22 22 -12
44 10 22 74 60 138 82 17 5 12 10 -28 30 -58 27 -97 62 -97 86 0 30 29 30 148
4 46 -11 42 7 -18 72 -62 67 -67 103 -17 103 19 0 54 -6 79 -14 l46 -13 4 79
c3 69 6 82 27 99 27 22 31 22 64 10z m-1086 -181 c34 -20 73 -85 73 -120 0
-31 22 -24 69 20 59 57 111 52 111 -11 0 -39 -13 -68 -55 -123 -20 -27 -33
-52 -28 -57 5 -5 31 8 59 27 59 41 123 55 143 30 20 -24 5 -63 -34 -89 -19
-12 -33 -26 -32 -32 2 -5 28 -15 57 -22 68 -15 95 -41 95 -94 0 -64 -39 -76
-119 -35 l-48 24 7 -21 c15 -52 17 -97 5 -112 -13 -16 -86 -21 -105 -7 -6 4
-20 30 -32 58 -18 46 -19 53 -6 78 28 54 -14 160 -74 185 -22 9 -39 33 -76
109 -26 54 -63 120 -82 148 -31 43 -33 50 -17 56 30 12 56 8 89 -12z m2213 5
c0 -2 -16 -27 -36 -56 -21 -30 -55 -93 -78 -141 -29 -62 -51 -93 -75 -110 -19
-13 -43 -35 -54 -50 -23 -31 -35 -121 -18 -141 13 -17 -13 -105 -37 -124 -22
-18 -87 -16 -102 2 -12 15 -10 67 5 113 l8 24 -51 -26 c-84 -43 -122 -30 -122
41 1 49 33 75 108 88 23 4 42 12 42 18 0 7 -16 25 -35 40 -36 29 -45 63 -23
85 26 26 84 9 156 -46 24 -18 36 -22 44 -14 8 8 2 21 -22 48 -34 39 -69 107
-70 135 0 9 9 24 20 34 28 25 60 13 109 -40 24 -26 43 -40 45 -33 28 99 60
143 112 157 25 6 74 4 74 -4z m-1597 -233 c24 -21 22 -77 -3 -102 -43 -43
-120 -13 -122 47 -2 70 71 102 125 55z m1000 -4 c40 -48 7 -118 -56 -118 -38
0 -62 21 -72 62 -6 22 -1 33 24 59 25 25 37 30 59 25 15 -4 35 -16 45 -28z
m-1535 -104 c30 -21 52 -66 52 -108 0 -41 -12 -51 -40 -36 -31 17 -60 70 -60
111 0 52 11 59 48 33z m1990 4 c29 -29 -1 -119 -48 -143 -68 -35 -65 82 4 137
25 21 29 21 44 6z m-1450 -92 c13 -50 63 -113 101 -128 14 -6 56 -10 92 -9 48
0 70 -4 79 -14 19 -22 71 -18 124 10 l47 25 43 -25 c48 -28 107 -33 126 -10 9
10 31 14 79 13 103 -2 153 33 188 134 19 52 49 70 36 21 -5 -16 -8 -48 -8 -73
0 -94 77 -147 253 -176 94 -16 102 -19 102 -39 l0 -22 -86 28 c-47 16 -120 35
-163 43 -89 15 -117 28 -126 57 -6 18 -8 19 -23 5 -39 -35 -73 -38 -407 -40
-336 -2 -406 4 -434 38 -9 11 -17 8 -44 -19 -27 -27 -42 -33 -97 -39 -53 -6
-170 -39 -252 -71 -14 -6 -18 -2 -18 18 0 23 5 26 48 32 151 20 225 44 270 88
40 39 55 88 42 142 -12 52 -12 55 3 55 7 0 18 -20 25 -44z m125 -243 c-7 -2
-21 -2 -30 0 -10 3 -4 5 12 5 17 0 24 -2 18 -5z m670 0 c-7 -2 -21 -2 -30 0
-10 3 -4 5 12 5 17 0 24 -2 18 -5z m-848 -19 c-82 -13 -201 -42 -249 -60 -13
-5 -17 -4 -12 4 9 15 108 51 169 61 29 5 81 9 117 9 l65 0 -90 -14z m1085 2
c71 -13 164 -48 175 -67 3 -4 -10 -2 -30 7 -44 18 -146 42 -250 59 -80 13 -80
13 -25 14 30 0 89 -6 130 -13z m-610 -25 c0 -14 -24 -30 -95 -62 -52 -24 -95
-49 -95 -55 0 -6 43 -31 95 -55 52 -23 95 -48 95 -54 0 -8 -47 -14 -152 -18
-232 -10 -431 -48 -537 -101 l-47 -24 -11 39 -10 39 61 0 61 0 63 69 c34 38
62 74 62 79 0 16 -28 22 -108 22 -76 0 -76 0 -118 -41 l-42 -42 -11 39 c-8 27
-7 41 1 52 43 51 238 98 528 125 19 2 86 5 148 5 103 2 112 1 112 -17z m335 9
c221 -21 424 -67 475 -108 19 -16 21 -24 15 -61 l-7 -43 -42 41 -42 41 -79 0
c-79 0 -111 -9 -104 -27 2 -6 32 -40 65 -77 l61 -66 57 0 58 0 -7 -32 c-11
-48 -11 -49 -58 -23 -93 52 -302 91 -539 102 -129 5 -148 8 -148 23 0 11 28
30 82 56 45 21 81 44 81 49 0 6 -37 28 -82 49 -67 33 -81 44 -81 63 0 22 2 23
93 23 50 0 142 -5 202 -10z m-255 -93 l72 -33 -72 -33 -72 -34 -70 34 -70 34
68 32 c38 18 70 32 70 33 1 0 34 -15 74 -33z m-665 -76 c17 -7 15 -12 -25 -54
l-45 -47 -58 7 -57 6 42 47 c38 42 48 48 83 48 22 0 49 -3 60 -7z m1352 -40
l42 -48 -57 -7 -57 -6 -43 47 c-39 42 -42 48 -25 54 10 4 36 8 58 8 35 0 45
-5 82 -48z m-542 -91 c258 -19 456 -64 518 -120 38 -35 32 -53 -31 -88 -261
-146 -1241 -131 -1419 22 -131 113 419 222 932 186z"/>
<path d="M2560 7045 c0 -78 3 -95 15 -95 12 0 15 17 15 95 0 78 -3 95 -15 95
-12 0 -15 -17 -15 -95z"/>
<path d="M2525 6898 c-74 -40 -74 -144 1 -184 71 -39 163 26 150 106 -11 69
-92 111 -151 78z m78 -29 c30 -16 37 -28 37 -66 0 -41 -42 -77 -80 -68 -58 14
-78 78 -35 120 27 28 45 31 78 14z"/>
<path d="M2370 6713 c-99 -41 -97 -40 -83 -54 9 -9 32 -3 90 21 86 36 106 48
97 61 -7 13 -9 12 -104 -28z"/>
<path d="M2675 6740 c-10 -17 0 -23 93 -60 54 -21 87 -29 93 -23 14 14 -3 25
-86 58 -38 15 -75 29 -81 32 -7 2 -15 -1 -19 -7z"/>
<path d="M5224 7127 c-3 -8 -4 -49 -2 -93 2 -62 6 -79 18 -79 12 0 16 18 18
93 2 78 0 92 -13 92 -9 0 -18 -6 -21 -13z"/>
<path d="M5169 6881 c-23 -23 -29 -38 -29 -71 0 -23 5 -50 10 -61 13 -22 61
-49 90 -49 37 0 81 30 96 67 43 103 -88 193 -167 114z m115 -22 c53 -42 23
-122 -46 -122 -64 0 -92 83 -42 122 15 12 34 21 44 21 10 0 29 -9 44 -21z"/>
<path d="M5038 6713 c-52 -20 -88 -41 -88 -49 0 -20 15 -17 105 20 50 20 81
38 83 49 5 22 1 22 -100 -20z"/>
<path d="M5344 6739 c-9 -15 1 -22 91 -58 92 -36 98 -37 93 -15 -2 9 -37 30
-87 50 -98 39 -88 37 -97 23z"/>
<path d="M1702 6628 c5 -14 173 -46 184 -35 13 13 -4 20 -78 33 -94 17 -111
17 -106 2z"/>
<path d="M3310 6627 c-46 -9 -65 -16 -65 -27 0 -11 9 -14 35 -12 66 6 155 27
155 37 0 14 -50 15 -125 2z"/>
<path d="M4370 6626 c0 -9 23 -17 75 -25 93 -14 115 -14 115 -1 0 10 -12 14
-104 30 -77 13 -86 13 -86 -4z"/>
<path d="M5980 6626 c-46 -8 -65 -15 -65 -26 0 -17 9 -17 113 0 50 8 72 16 72
26 0 17 -28 17 -120 0z"/>
<path d="M2171 6304 c-30 -21 -51 -71 -44 -106 8 -42 55 -80 98 -80 75 0 124
73 95 142 -23 54 -101 78 -149 44z m100 -32 c46 -38 17 -122 -43 -122 -64 0
-92 80 -42 119 33 26 55 26 85 3z"/>
<path d="M2877 6300 c-39 -31 -52 -81 -32 -123 36 -77 142 -81 180 -7 24 46
19 78 -19 116 -40 40 -89 46 -129 14z m112 -35 c20 -20 18 -71 -4 -95 -39 -43
-115 -11 -115 49 0 59 76 88 119 46z"/>
<path d="M4832 6295 c-36 -30 -47 -66 -32 -110 13 -40 51 -67 95 -67 44 0 72
16 91 54 50 96 -71 193 -154 123z m116 -32 c20 -28 15 -80 -10 -97 -48 -34
-108 -7 -108 47 0 18 4 37 8 43 24 35 85 39 110 7z"/>
<path d="M5541 6294 c-38 -32 -49 -80 -27 -122 41 -79 158 -70 186 13 15 44 4
80 -32 110 -39 33 -87 33 -127 -1z m92 -15 c30 -16 37 -28 37 -66 0 -54 -70
-84 -112 -46 -33 29 -19 101 22 116 23 8 30 8 53 -4z"/>
<path d="M2325 5994 c-16 -2 -73 -9 -125 -15 -154 -18 -257 -58 -243 -95 22
-59 275 -98 628 -97 383 1 628 49 601 118 -13 34 -139 66 -325 85 -95 9 -465
12 -536 4z m567 -59 c110 -15 178 -36 178 -55 0 -40 -207 -70 -490 -70 -229 0
-364 12 -444 38 -61 21 -68 38 -24 56 121 51 508 66 780 31z"/>
<path d="M4935 5989 c-213 -22 -336 -67 -309 -111 12 -20 91 -47 176 -62 385
-67 1038 -20 1056 76 7 37 -131 79 -327 98 -120 12 -480 11 -596 -1z m628 -55
c221 -28 221 -76 -1 -109 -117 -18 -485 -20 -617 -4 -101 12 -187 38 -193 57
-2 7 11 19 30 26 120 51 511 66 781 30z"/>
<path d="M2815 5281 c-65 -40 -95 -100 -95 -188 0 -68 24 -125 69 -167 25 -24
42 -31 89 -34 69 -5 109 12 145 60 63 86 63 201 -1 287 -44 60 -145 80 -207
42z m115 -11 c35 -19 53 -90 48 -192 -5 -104 -24 -154 -62 -164 -70 -17 -105
44 -106 179 0 147 47 216 120 177z"/>
<path d="M3650 5290 c-41 -4 -68 -7 -59 -8 26 -3 29 -23 29 -187 0 -161 -3
-185 -26 -185 -8 0 -14 -4 -14 -10 0 -6 33 -10 80 -10 75 0 105 11 60 23 -19
5 -20 14 -20 182 0 168 1 177 20 182 18 5 30 25 13 21 -5 -1 -42 -4 -83 -8z"/>
<path d="M2368 5280 c22 -9 22 -12 22 -186 0 -167 -1 -176 -20 -181 -11 -3
-20 -10 -20 -16 0 -6 35 -8 100 -4 123 6 164 25 200 88 35 62 35 165 0 228
-38 67 -73 81 -200 80 -73 0 -98 -3 -82 -9z m163 -20 c38 -21 54 -69 54 -170
0 -107 -18 -155 -60 -166 -54 -13 -55 -9 -55 176 0 165 1 170 21 170 11 0 29
-5 40 -10z"/>
<path d="M3118 5280 c22 -9 22 -12 22 -186 0 -167 -1 -176 -20 -181 -11 -3
-20 -9 -20 -14 0 -12 97 -11 105 1 3 6 -1 10 -9 10 -8 0 -20 9 -26 19 -13 25
-14 322 0 301 5 -8 33 -82 61 -165 29 -82 55 -154 59 -158 8 -9 13 3 84 203
l45 125 0 -162 c1 -158 0 -163 -20 -163 -11 0 -17 -4 -14 -10 3 -5 40 -10 81
-10 43 0 74 4 74 10 0 6 -6 10 -14 10 -21 0 -26 33 -26 185 0 161 4 182 34
188 11 2 -11 5 -49 6 l-71 1 -28 -87 c-16 -48 -36 -105 -45 -127 l-17 -40 -44
127 -44 127 -71 -1 c-52 0 -64 -3 -47 -9z"/>
<path d="M3329 4711 c-26 -27 -35 -55 -30 -101 5 -43 29 -75 85 -113 71 -47
85 -63 86 -94 0 -28 -33 -63 -60 -63 -31 0 -89 57 -96 96 -10 57 -24 38 -24
-33 l0 -68 48 -3 c124 -8 123 -8 153 26 65 73 44 151 -60 219 -36 23 -68 48
-73 55 -22 35 6 88 46 88 25 0 86 -63 86 -89 0 -12 5 -21 11 -21 8 0 10 13 5
38 -3 20 -6 48 -6 61 0 18 -3 21 -13 13 -8 -7 -19 -6 -37 3 -43 24 -88 19
-121 -14z"/>
<path d="M2565 4718 c11 -6 23 -16 27 -22 4 -6 8 -84 8 -173 l0 -162 -27 -15
c-27 -15 -26 -15 37 -15 54 0 61 2 42 11 -30 15 -33 33 -30 178 l3 125 110
-164 110 -164 5 191 c5 176 7 192 25 206 19 14 16 15 -34 16 -52 0 -53 0 -32
-17 20 -17 22 -26 19 -117 l-3 -99 -78 116 -77 117 -63 0 c-51 -1 -59 -3 -42
-12z"/>
<path d="M2943 4713 c8 -10 46 -102 83 -205 37 -103 69 -186 72 -184 2 2 35
87 72 188 43 113 78 190 91 201 21 17 20 17 -37 16 -46 0 -54 -2 -36 -9 12 -5
22 -18 22 -28 0 -18 -63 -203 -77 -225 -3 -5 -23 37 -43 95 -56 158 -55 147
-28 157 17 7 3 10 -56 10 -75 1 -78 0 -63 -16z"/>
<path d="M2493 4154 l27 -15 0 -167 c0 -92 -4 -172 -8 -178 -4 -7 -16 -14 -27
-17 -11 -2 21 -5 70 -5 63 -1 83 2 68 8 -23 9 -23 12 -23 183 0 170 1 175 23
190 21 15 17 16 -68 16 -85 0 -89 -1 -62 -15z"/>
<path d="M2688 4153 c21 -15 22 -20 22 -190 0 -171 0 -174 -22 -183 -16 -6 26
-9 123 -9 l146 -1 7 38 c3 20 6 53 5 72 l0 35 -15 -40 c-20 -58 -56 -85 -108
-85 -31 0 -46 5 -50 16 -9 22 -7 317 2 330 4 6 16 16 27 22 16 9 2 11 -70 11
-85 0 -89 -1 -67 -16z"/>
<path d="M3015 4158 c11 -6 23 -16 27 -22 4 -6 8 -81 8 -167 0 -157 -4 -179
-40 -192 -8 -3 53 -5 135 -4 l150 2 5 63 c5 64 -4 84 -15 33 -3 -16 -17 -41
-31 -56 -21 -22 -31 -26 -72 -23 l-47 3 -3 176 c-2 174 -2 176 20 187 19 9 6
11 -67 11 -72 0 -86 -2 -70 -11z"/>
<path d="M3290 4161 c0 -5 5 -11 10 -13 6 -2 41 -87 78 -190 38 -103 71 -190
74 -193 3 -3 36 76 74 177 37 100 76 190 86 200 10 10 18 20 18 23 0 3 -24 5
-52 4 -51 0 -52 -1 -30 -16 12 -8 22 -21 22 -28 0 -16 -70 -208 -80 -218 -6
-7 -90 209 -90 232 0 4 10 13 23 19 18 9 8 11 -55 11 -43 1 -78 -3 -78 -8z"/>
<path d="M4050 5292 c0 -5 9 -12 20 -15 19 -5 20 -14 20 -176 0 -160 -1 -172
-20 -183 -32 -20 -24 -28 30 -28 55 0 60 4 30 28 -19 16 -21 26 -18 171 l3
154 59 -161 c70 -191 72 -194 84 -162 5 14 33 90 62 170 29 80 54 147 56 149
2 2 4 -69 4 -158 0 -154 -1 -163 -20 -168 -46 -12 -15 -23 65 -23 50 0 85 4
85 10 0 6 -8 10 -19 10 -27 0 -31 25 -31 191 0 147 5 170 40 182 8 3 -17 6
-56 6 -49 1 -73 -3 -77 -11 -2 -7 -21 -60 -42 -118 -20 -58 -40 -108 -44 -112
-3 -4 -27 49 -51 117 l-45 125 -52 0 c-28 0 -58 3 -67 6 -9 3 -16 2 -16 -4z"/>
<path d="M4980 5291 c0 -5 9 -11 20 -14 18 -5 20 -14 20 -112 0 -125 8 -128
-99 33 l-62 92 -61 0 c-59 0 -61 -1 -40 -16 21 -15 22 -21 22 -174 0 -166 -3
-190 -26 -190 -8 0 -14 -4 -14 -10 0 -5 25 -10 55 -10 30 0 55 5 55 10 0 6 -7
10 -15 10 -28 0 -36 38 -33 171 l3 132 115 -164 115 -164 5 185 c3 102 9 191
13 198 5 6 15 12 23 12 8 0 12 5 9 10 -8 12 -105 13 -105 1z"/>
<path d="M5216 5121 c-37 -99 -77 -187 -87 -197 -10 -9 -19 -21 -19 -26 0 -12
98 -10 105 2 3 6 -3 10 -13 10 -28 0 -34 25 -17 66 14 33 15 34 74 34 57 0 59
-1 70 -31 15 -44 14 -69 -4 -69 -8 0 -15 -4 -15 -10 0 -11 142 -14 153 -3 4 3
-1 12 -11 19 -11 7 -48 93 -88 198 -38 102 -71 186 -74 186 -3 0 -36 -81 -74
-179z m66 -19 c26 -68 24 -72 -27 -72 -25 0 -45 3 -45 6 0 18 44 124 49 119 3
-3 13 -27 23 -53z"/>
<path d="M4558 5280 c22 -9 22 -12 22 -186 0 -167 -1 -176 -20 -181 -46 -12
-15 -23 65 -23 50 0 85 4 85 10 0 6 -8 10 -19 10 -26 0 -31 25 -31 185 0 161
4 182 34 188 11 2 -19 5 -69 5 -63 1 -83 -2 -67 -8z"/>
<path d="M4954 4729 c-49 -14 -100 -78 -115 -143 -34 -153 68 -282 208 -261
109 16 176 150 140 276 -32 108 -126 159 -233 128z m89 -18 c39 -15 59 -72 60
-170 1 -129 -28 -193 -88 -193 -58 0 -89 64 -88 183 0 91 16 142 50 169 29 23
33 23 66 11z"/>
<path d="M4281 4673 l0 -58 19 41 c18 41 35 54 71 54 18 0 19 -9 19 -178 0
-176 0 -179 -22 -190 -18 -8 -5 -11 67 -11 72 0 85 3 68 11 -23 11 -23 14 -23
190 l0 178 23 0 c29 0 51 -17 71 -55 l15 -30 1 53 0 52 -155 0 -155 0 1 -57z"/>
<path d="M4640 4717 l25 -13 0 -174 0 -174 -25 -13 c-22 -11 -13 -13 70 -13
83 0 92 2 70 13 l-25 13 0 174 0 174 25 13 c22 11 13 13 -70 13 -83 0 -92 -2
-70 -13z"/>
<path d="M4177 4158 c29 -14 33 -33 33 -190 0 -144 -7 -183 -37 -191 -10 -3 9
-5 42 -5 48 -1 56 1 39 10 -16 7 -23 23 -28 55 -9 67 -7 263 2 263 5 0 34 -71
66 -157 32 -87 61 -161 65 -166 4 -4 34 66 65 155 32 90 62 167 67 173 6 6 8
-54 7 -150 -3 -159 -3 -159 -28 -172 -22 -11 -13 -13 70 -12 54 1 84 4 70 8
l-25 7 -3 177 -2 176 27 15 c27 15 25 16 -46 13 l-74 -2 -44 -125 c-24 -68
-46 -126 -47 -128 -2 -2 -25 56 -51 128 l-48 130 -71 -1 c-57 0 -67 -2 -49
-11z"/>
<path d="M4665 4158 c11 -6 23 -16 27 -22 4 -6 8 -81 8 -167 0 -157 -5 -179
-40 -192 -8 -3 54 -6 138 -6 151 -1 152 -1 152 22 0 12 3 40 6 62 l5 40 -21
-37 c-25 -46 -69 -70 -118 -66 l-37 3 -3 83 c-2 65 0 82 11 82 19 0 46 -32 57
-66 6 -21 8 2 8 76 0 74 -2 97 -8 76 -11 -34 -38 -66 -57 -66 -10 0 -13 20
-13 80 l0 80 48 0 c53 0 71 -12 94 -65 l13 -30 3 49 c5 79 10 76 -150 76 -112
-1 -139 -3 -123 -12z"/>
<path d="M5161 4149 c-5 -13 -32 -85 -61 -159 -59 -153 -77 -190 -99 -207 -13
-10 -5 -12 44 -12 46 0 55 2 38 9 -25 10 -29 33 -13 74 9 24 14 26 70 26 54 0
61 -3 69 -22 23 -63 23 -68 -1 -77 -17 -7 -1 -10 61 -10 l84 -1 -20 23 c-11
12 -49 99 -83 192 -35 94 -67 174 -71 179 -5 5 -12 -1 -18 -15z m23 -226 c7
-22 5 -23 -44 -23 -58 0 -58 -2 -18 90 l20 45 18 -45 c9 -25 21 -55 24 -67z"/>
<path d="M3924 2647 c-10 -28 1 -180 14 -185 9 -3 12 20 12 92 0 86 -12 129
-26 93z"/>
<path d="M3881 2404 c-13 -9 -29 -32 -37 -50 -12 -29 -12 -39 0 -68 44 -106
196 -79 196 34 0 81 -93 130 -159 84z m109 -34 c42 -42 10 -120 -50 -120 -38
0 -70 32 -70 70 0 17 9 39 20 50 11 11 33 20 50 20 17 0 39 -9 50 -20z"/>
<path d="M3736 2227 c-82 -34 -117 -66 -58 -54 45 9 162 64 162 76 0 17 -18
13 -104 -22z"/>
<path d="M4040 2247 c0 -17 178 -89 186 -75 9 15 -4 24 -89 57 -87 35 -97 37
-97 18z"/>
<path d="M3066 2152 c-3 -6 0 -14 7 -19 16 -13 164 -36 177 -28 21 13 -2 23
-73 35 -39 6 -79 14 -89 16 -9 3 -19 1 -22 -4z"/>
<path d="M4765 2155 c-5 -2 -43 -9 -82 -15 -51 -8 -73 -16 -73 -26 0 -17 21
-17 115 -1 47 9 70 17 70 26 0 15 -13 22 -30 16z"/>
<path d="M3553 1825 c-35 -15 -63 -60 -63 -101 0 -40 59 -94 103 -94 43 0 82
30 97 75 15 46 -8 97 -55 119 -39 19 -41 19 -82 1z m87 -45 c29 -29 26 -74 -7
-100 -46 -36 -103 -10 -105 49 -2 62 68 95 112 51z"/>
<path d="M4264 1825 c-39 -16 -64 -51 -64 -88 0 -94 106 -142 171 -78 78 78
-7 209 -107 166z m86 -45 c29 -29 26 -74 -7 -100 -64 -50 -143 29 -93 93 26
33 71 36 100 7z"/>
<path d="M3712 1509 c-224 -16 -382 -57 -390 -101 -7 -38 124 -77 327 -97 222
-23 640 -7 785 30 92 23 137 53 120 81 -42 68 -479 113 -842 87z m580 -63
c144 -26 174 -51 96 -80 -71 -26 -163 -37 -364 -43 -329 -10 -616 31 -573 83
13 16 128 42 239 54 127 13 499 4 602 -14z"/>
</g>
</svg>
